<?xml version="1.0" encoding="UTF-8" standalone="no"?>
<svg height="788" width="1123" xmlns="http://www.w3.org/2000/svg" xmlns:xlink="http://www.w3.org/1999/xlink"
onclick="console.log('&quot;x&quot;: ' + evt.layerX + ', &quot;y&quot;: ' + evt.layerY)">
  <style>
    path {
        fill: transparent;
        stroke-width: 2;
    }
    circle {
        stroke-width: 3;
        fill: transparent;
    }
    text {
        font-family: LexendDeca-Light, sans-serif;
        stroke: black;
        paint-order: stroke;
        stroke-width: 3;
        dominant-baseline: middle;
        text-anchor: middle;
        font-size: 20px;
    }
    .bonus { stroke: #b9f; }
    .bonus-text { fill: #b9f; }
    .progression { stroke: yellow; }
    .progression-text { fill: yellow; }
    .annotation { stroke: #fa66a9; }
    .annotation-text { fill: #fa66a9; }
  </style>
  <image href="raw/gates_of_hell.png" x="0" y="0"/>
  <circle cx="490" cy="244" r="10" class="bonus"/>
  <text x="490" y="224" class="bonus-text">Drop 1</text>
  <circle cx="584" cy="602" r="10" class="bonus"/>
  <text x="584" y="582" class="bonus-text">Drop 2</text>
  <circle cx="106" cy="323" r="20" class="bonus"/>
  <text x="106" y="293" class="bonus-text">Drop 3</text>
  <circle cx="742" cy="493" r="10" class="bonus"/>
  <text x="742" y="473" class="bonus-text">Drop 4</text>
  <circle cx="320" cy="602" r="20" class="bonus"/>
  <text x="320" y="572" class="bonus-text">Drop 5</text>
  <circle cx="235" cy="250" r="10" class="bonus"/>
  <text x="235" y="230" class="bonus-text">Drop 6</text>
  <circle cx="613" cy="193" r="10" class="bonus"/>
  <text x="613" y="173" class="bonus-text">Drop 7</text>
  <circle cx="493" cy="738" r="10" class="bonus"/>
  <text x="493" y="718" class="bonus-text">Drop 7</text>
  <circle cx="385" cy="87" r="10" class="bonus"/>
  <text x="385" y="67" class="bonus-text">Drop 8</text>
  <circle cx="73" cy="368" r="10" class="bonus"/>
  <text x="73" y="348" class="bonus-text">Drop 8</text>
  <circle cx="1026" cy="269" r="30" class="progression"/>
  <text x="1026" y="229" class="progression-text">Goal</text>
  <rect width="100%" height="100%" fill="transparent" stroke="pink"/>
  SVG is unsupported.
</svg>