<?xml version="1.0" encoding="UTF-8" standalone="no"?>
<svg height="636" width="1802" xmlns="http://www.w3.org/2000/svg" xmlns:xlink="http://www.w3.org/1999/xlink"
onclick="console.log('&quot;x&quot;: ' + evt.layerX + ', &quot;y&quot;: ' + evt.layerY)">
  <style>
    path {
        fill: transparent;
        stroke-width: 2;
    }
    circle {
        stroke-width: 3;
        fill: transparent;
    }
    text {
        font-family: LexendDeca-Light, sans-serif;
        stroke: black;
        paint-order: stroke;
        stroke-width: 3;
        dominant-baseline: middle;
        text-anchor: middle;
        font-size: 20px;
    }
    .bonus { stroke: #b9f; }
    .bonus-text { fill: #b9f; }
    .progression { stroke: yellow; }
    .progression-text { fill: yellow; }
    .annotation { stroke: #fa66a9; }
    .annotation-text { fill: #fa66a9; }
  </style>
  <image href="raw/maw_of_the_void.png" x="0" y="0"/>
  <circle cx="910" cy="204" r="20" class="bonus"/>
  <text x="910" y="174" class="bonus-text">Expansion DTs</text>
  <circle cx="1062" cy="530" r="20" class="bonus"/>
  <text x="1062" y="500" class="bonus-text">South Close DTs</text>
  <circle cx="660" cy="62" r="20" class="bonus"/>
  <text x="660" y="32" class="bonus-text">North DTs</text>
  <circle cx="445" cy="601" r="20" class="bonus"/>
  <text x="445" y="571" class="bonus-text">South Far DTs</text>
  <circle cx="1661" cy="238" r="30" class="progression"/>
  <text x="1661" y="198" class="progression-text">Landing Zone</text>
  <circle cx="1033" cy="242" r="30" class="progression"/>
  <text x="1033" y="202" class="progression-text">Expansion Gen</text>
  <circle cx="758" cy="298" r="30" class="progression"/>
  <text x="758" y="258" class="progression-text">Middle Gen</text>
  <circle cx="660" cy="570" r="30" class="progression"/>
  <text x="660" y="530" class="progression-text">Southeast Gen</text>
  <circle cx="539" cy="248" r="30" class="progression"/>
  <text x="539" y="208" class="progression-text">Stargate Gen</text>
  <circle cx="241" cy="548" r="30" class="progression"/>
  <text x="241" y="508" class="progression-text">Southwest Gen</text>
  <circle cx="230" cy="103" r="30" class="progression"/>
  <text x="230" y="63" class="progression-text">Northwest Gen</text>
  <circle cx="88" cy="324" r="30" class="progression"/>
  <text x="88" y="284" class="progression-text">West Gen</text>
  <circle cx="218" cy="328" r="40" class="progression"/>
  <text x="218" y="278" class="progression-text">Goal</text>
  <rect width="100%" height="100%" fill="transparent" stroke="#fae"/>
  SVG is unsupported.
</svg>