<?xml version="1.0" encoding="UTF-8" standalone="no"?>
<svg height="907" width="1038" xmlns="http://www.w3.org/2000/svg" xmlns:xlink="http://www.w3.org/1999/xlink"
onclick="console.log('&quot;x&quot;: ' + evt.layerX + ', &quot;y&quot;: ' + evt.layerY)">
  <style>
    path {
        fill: transparent;
        stroke-width: 2;
    }
    circle {
        stroke-width: 3;
        fill: transparent;
    }
    text {
        font-family: LexendDeca-Light, sans-serif;
        stroke: black;
        paint-order: stroke;
        stroke-width: 3;
        dominant-baseline: middle;
        text-anchor: middle;
        font-size: 20px;
    }
    .bonus { stroke: #b9f; }
    .bonus-text { fill: #b9f; }
    .progression { stroke: yellow; }
    .progression-text { fill: yellow; }
    .annotation { stroke: red; }
    .annotation-text { fill: red; }
  </style>
  <image href="raw/media_blitz.png" x="0" y="0"/>
  <circle cx="947" cy="872" r="20" class="bonus"/>
  <text x="947" y="842" class="bonus-text">Science Facility</text>
  <circle cx="834" cy="558" r="20" class="progression"/>
  <text x="834" y="528" class="progression-text">Tower 1</text>
  <circle cx="850" cy="97" r="20" class="progression"/>
  <text x="850" y="67" class="progression-text">Tower 2</text>
  <circle cx="116" cy="31" r="20" class="progression"/>
  <text x="116" y="61" class="progression-text">Tower 3</text>
  <circle cx="882" cy="714" r="1" class="annotation"/>
  <circle cx="832" cy="647" r="1" class="annotation"/>
  <circle cx="958" cy="646" r="1" class="annotation"/>
  <circle cx="988" cy="618" r="1" class="annotation"/>
  <circle cx="920" cy="555" r="1" class="annotation"/>
  <circle cx="729" cy="222" r="1" class="annotation"/>
  <circle cx="763" cy="190" r="1" class="annotation"/>
  <circle cx="640" cy="188" r="1" class="annotation"/>
  <circle cx="863" cy="147" r="1" class="annotation"/>
  <circle cx="798" cy="85" r="1" class="annotation"/>
  <circle cx="631" cy="20" r="1" class="annotation"/>
  <circle cx="312" cy="78" r="1" class="annotation"/>
  <circle cx="162" cy="221" r="1" class="annotation"/>
  <circle cx="95" cy="131" r="1" class="annotation"/>
  <circle cx="98" cy="95" r="1" class="annotation"/>
  <circle cx="171" cy="25" r="1" class="annotation"/>
  <circle cx="223" cy="24" r="1" class="annotation"/>
  <circle cx="165" cy="421" r="1" class="annotation"/>
  <circle cx="106" cy="470" r="1" class="annotation"/>
  <rect width="100%" height="100%" fill="transparent" stroke="pink"/>
  SVG is unsupported.
</svg>